<svg width="942" height="180" viewBox="0 0 942 180" fill="none" xmlns="http://www.w3.org/2000/svg">
<path d="M46.5898 179C37.0898 179 28.7565 178.75 21.5898 178.25C14.5898 177.75 7.58984 177.167 0.589845 176.5V2.5C8.42318 1.66666 16.0898 1.08333 23.5898 0.749989C31.0898 0.249996 39.6732 -1.07288e-06 49.3399 -1.07288e-06C64.3399 -1.07288e-06 77.2565 2.33333 88.0899 7C99.0899 11.6667 108.09 18.0833 115.09 26.25C122.257 34.4167 127.507 43.9167 130.84 54.75C134.34 65.4167 136.09 76.9167 136.09 89.25C136.09 101.417 134.34 112.917 130.84 123.75C127.34 134.583 121.923 144.167 114.59 152.5C107.423 160.667 98.1732 167.167 86.8399 172C75.6732 176.667 62.2565 179 46.5898 179ZM47.3398 158.25C62.3398 158.25 74.5898 155.333 84.0898 149.5C93.5899 143.667 100.59 135.583 105.09 125.25C109.59 114.75 111.84 102.75 111.84 89.25C111.84 77.25 109.59 66 105.09 55.5C100.59 45 93.6732 36.5833 84.3398 30.25C75.0065 23.75 63.0898 20.5 48.5898 20.5C43.7565 20.5 39.3398 20.6667 35.3398 21C31.3398 21.1667 27.6732 21.4167 24.3398 21.75V157C27.8398 157.5 31.5065 157.833 35.3398 158C39.1732 158.167 43.1732 158.25 47.3398 158.25ZM223.25 180C210.917 180 199.833 177.167 190 171.5C180.167 165.667 172.417 157.667 166.75 147.5C161.25 137.167 158.5 125.333 158.5 112C158.5 98 161.333 85.9167 167 75.75C172.667 65.5833 180.417 57.75 190.25 52.25C200.083 46.75 211.083 44 223.25 44C235.417 44 246.333 46.75 256 52.25C265.833 57.75 273.583 65.5833 279.25 75.75C285.083 85.75 288 97.6667 288 111.5C288 125.333 285.167 137.417 279.5 147.75C273.833 157.917 266.083 165.833 256.25 171.5C246.583 177.167 235.583 180 223.25 180ZM223.25 160C236.417 160 246.667 155.583 254 146.75C261.333 137.75 265 126.167 265 112C265 103.333 263.167 95.4167 259.5 88.25C255.833 80.9167 250.833 75.0833 244.5 70.75C238.333 66.25 231.25 64 223.25 64C210.083 64 199.833 68.3333 192.5 77C185.167 85.6667 181.5 97.1667 181.5 111.5C181.5 120.167 183.333 128.25 187 135.75C190.667 143.083 195.583 149 201.75 153.5C208.083 157.833 215.25 160 223.25 160ZM317.914 177V47H339.664V68.75C344.331 61.75 350.247 55.9167 357.414 51.25C364.747 46.4167 373.414 44 383.414 44C398.081 44 408.997 48.4167 416.164 57.25C423.497 66.0833 427.164 77.75 427.164 92.25V177H404.664V94.75C404.664 85.4167 402.414 77.9167 397.914 72.25C393.581 66.5833 387.497 63.75 379.664 63.75C371.997 63.75 364.747 66.5 357.914 72C351.081 77.3333 345.247 83.6667 340.414 91V177H317.914ZM515.613 180C504.78 180 494.947 177.25 486.113 171.75C477.28 166.25 470.197 158.5 464.863 148.5C459.697 138.333 457.113 126.417 457.113 112.75C457.113 99.75 459.697 88.0833 464.863 77.75C470.197 67.4167 477.447 59.25 486.613 53.25C495.947 47.0833 506.613 44 518.613 44C526.113 44 532.863 45.3333 538.863 48C545.03 50.5 550.363 53.6667 554.863 57.5V47H575.363V145.5C575.363 151.833 576.863 156 579.863 158C583.03 159.833 586.447 160.75 590.113 160.75L585.363 178.25C569.363 178.25 559.697 171.75 556.363 158.75C552.53 164.083 547.28 169 540.613 173.5C534.113 177.833 525.78 180 515.613 180ZM520.613 160C526.947 160 532.947 158.5 538.613 155.5C544.28 152.333 549.03 148.417 552.863 143.75V74C548.363 70.8333 543.363 68.3333 537.863 66.5C532.53 64.5 526.863 63.5 520.863 63.5C512.863 63.5 505.78 65.5833 499.613 69.75C493.613 73.75 488.863 79.4167 485.363 86.75C481.863 93.9167 480.113 102.333 480.113 112C480.113 121.333 481.863 129.667 485.363 137C488.863 144.167 493.697 149.833 499.863 154C506.03 158 512.947 160 520.613 160ZM665.66 180C653.16 180 643.243 175.917 635.91 167.75C628.743 159.417 625.16 147.583 625.16 132.25V71.25H602.66V51.75H625.66L630.41 10.75H647.66V51.75H683.66V71.25H647.66V134C647.66 143.667 649.66 150.417 653.66 154.25C657.827 158.083 662.743 160 668.41 160C672.577 160 676.493 159.333 680.16 158C683.993 156.667 687.493 155.083 690.66 153.25L696.91 171.25C693.577 173.25 689.077 175.167 683.41 177C677.743 179 671.827 180 665.66 180ZM769.393 180C757.059 180 745.976 177.167 736.143 171.5C726.309 165.667 718.559 157.667 712.893 147.5C707.393 137.167 704.643 125.333 704.643 112C704.643 98 707.476 85.9167 713.143 75.75C718.809 65.5833 726.559 57.75 736.393 52.25C746.226 46.75 757.226 44 769.393 44C781.559 44 792.476 46.75 802.143 52.25C811.976 57.75 819.726 65.5833 825.393 75.75C831.226 85.75 834.143 97.6667 834.143 111.5C834.143 125.333 831.309 137.417 825.643 147.75C819.976 157.917 812.226 165.833 802.393 171.5C792.726 177.167 781.726 180 769.393 180ZM769.393 160C782.559 160 792.809 155.583 800.143 146.75C807.476 137.75 811.143 126.167 811.143 112C811.143 103.333 809.309 95.4167 805.643 88.25C801.976 80.9167 796.976 75.0833 790.643 70.75C784.476 66.25 777.393 64 769.393 64C756.226 64 745.976 68.3333 738.643 77C731.309 85.6667 727.643 97.1667 727.643 111.5C727.643 120.167 729.476 128.25 733.143 135.75C736.809 143.083 741.726 149 747.893 153.5C754.226 157.833 761.393 160 769.393 160ZM864.057 177V47H885.807V75.25C887.973 69.75 890.89 64.6667 894.557 60C898.223 55.1667 902.807 51.3333 908.307 48.5C913.807 45.5 920.223 44 927.557 44C930.057 44 932.557 44.1667 935.057 44.5C937.557 44.6667 939.64 45 941.307 45.5L934.557 68.75C931.39 67.4167 927.64 66.75 923.307 66.75C917.14 66.75 911.223 68.5 905.557 72C900.057 75.5 895.473 80.9167 891.807 88.25C888.307 95.5833 886.557 104.917 886.557 116.25V177H864.057Z" fill="url(#paint0_linear_76_3)"/>
<defs>
<linearGradient id="paint0_linear_76_3" x1="923" y1="95.1054" x2="236.068" y2="472.069" gradientUnits="userSpaceOnUse">
<stop stop-color="#0066FF"/>
<stop offset="1" stop-color="#FFD505"/>
</linearGradient>
</defs>
</svg>
